<?xml version="1.0" encoding="UTF-8"?>
<svg id="Layer_1" xmlns="http://www.w3.org/2000/svg" version="1.1" viewBox="0 0 16 17">
  <!-- Generator: Adobe Illustrator 30.1.0, SVG Export Plug-In . SVG Version: 2.1.1 Build 136)  -->
  <defs>
    <style>
      .st0 {
        fill: #22b5ff;
      }
    </style>
  </defs>
  <path class="st0" d="M14.09,7.75l-1.82-.52c-.82-.23-1.56-.67-2.17-1.27-.6-.6-1.04-1.35-1.27-2.17l-.52-1.82c-.03-.06-.07-.12-.13-.16-.06-.04-.12-.06-.19-.06s-.14.02-.19.06c-.06.04-.1.09-.13.16l-.52,1.82c-.23.82-.67,1.56-1.27,2.17-.6.6-1.35,1.04-2.17,1.27l-1.82.52c-.07.02-.13.06-.17.12-.04.06-.07.13-.07.2s.02.14.07.2c.04.06.11.1.17.12l1.82.52c.82.23,1.56.67,2.17,1.27.6.6,1.04,1.35,1.27,2.17l.52,1.82c.02.07.06.13.12.17s.13.07.2.07.14-.02.2-.07.1-.11.12-.17l.52-1.82c.23-.82.67-1.56,1.27-2.17.6-.6,1.35-1.04,2.17-1.27l1.82-.52c.07-.02.13-.06.17-.12.04-.06.07-.13.07-.2s-.02-.14-.07-.2c-.04-.06-.11-.1-.17-.12Z"/>
</svg>