<?xml version="1.0" encoding="UTF-8"?>
<!DOCTYPE svg PUBLIC "-//W3C//DTD SVG 1.1//EN" "http://www.w3.org/Graphics/SVG/1.1/DTD/svg11.dtd">
<!-- Creator: CorelDRAW 2021.5 -->
<svg xmlns="http://www.w3.org/2000/svg" xml:space="preserve" width="0.870102in" height="0.864984in" version="1.1" style="shape-rendering:geometricPrecision; text-rendering:geometricPrecision; image-rendering:optimizeQuality; fill-rule:evenodd; clip-rule:evenodd"
viewBox="0 0 72.13 71.71"
 xmlns:xlink="http://www.w3.org/1999/xlink"
 xmlns:xodm="http://www.corel.com/coreldraw/odm/2003">
 <defs>
  <style type="text/css">
   <![CDATA[
    .fil1 {fill:#5F9C22;fill-rule:nonzero}
    .fil0 {fill:url(#id0)}
   ]]>
  </style>
  <linearGradient id="id0" gradientUnits="userSpaceOnUse" x1="22.51" y1="20.17" x2="49.62" y2="70.79">
   <stop offset="0" style="stop-opacity:1; stop-color:#453185"/>
   <stop offset="0.611765" style="stop-opacity:1; stop-color:#2475BA"/>
   <stop offset="1" style="stop-opacity:1; stop-color:#03B9F0"/>
  </linearGradient>
 </defs>
 <g id="Layer_x0020_1">
  <metadata id="CorelCorpID_0Corel-Layer"/>
  <g id="_2222933013712">
   <path class="fil0" d="M64.9 34.04c0.34,-4.87 -0.96,-8.64 -4.09,-11.5 -7.1,-6.5 -19.09,-2.66 -20.95,6.7 -1.18,5.95 2.62,7.49 5.35,5.72 2.5,-1.62 0.38,-5.65 4.54,-7.87 2.34,-1.24 4.84,-0.52 6.55,1.16 3.8,3.73 -0.25,7.42 -1.2,10.81 1.92,0.5 5.23,0.53 6.85,1.39 4.01,2.14 3.94,7.87 -0.01,9.99 -0.81,0.43 -5.71,1.31 -6.72,1.33 0.67,3.11 3.83,5.56 2.2,9.42 -0.59,1.41 -2.03,2.5 -3.21,2.93 -3.56,1.27 -6,-1.19 -7.79,-3.74 -3.55,-5.07 -5.34,-11.18 -7.4,-16.99 -2.12,-5.97 -4.12,-11.77 -7.45,-16.99 -1.7,-2.3 -2.2,-3.07 -4.33,-4.92 -2.84,-2.1 -7.12,-2.72 -10.61,-1.81l-1.71 0.59c-2.95,1.19 -5.38,3.48 -6.66,6.39 -1.11,2.52 -1.36,4.72 -0.93,7.38 -4.16,0.8 -8.31,7.9 -7.1,13.82l0.53 1.9c0.47,1.3 0.86,2.18 1.54,3.09 1.76,2.37 2.83,2.84 5.04,4.24 -0.46,2.12 -0.04,4.52 0.56,6.17 0.38,1.05 0.6,1.5 1.1,2.31l1.39 1.83c3.73,4.51 9.78,5.29 15.02,3.03 2.99,-1.29 4.77,-3.54 6.17,-6.31 0.96,-1.9 1.97,-6.06 0.09,-7.77 -0.48,-0.43 -1.57,-1.06 -2.55,-1.06 -4.17,0 -3.02,3.64 -4.13,5.89 -1.92,3.88 -6.25,4.45 -9.35,1.2 -2.05,-2.16 -1.26,-4.87 -0.01,-7.19 0.66,-1.21 1.18,-1.99 1.56,-3.41 -1.74,-0.28 -5.63,-0.65 -6.87,-1.34 -4.04,-2.27 -3.91,-7.77 0.01,-9.9 1.02,-0.56 5.49,-1.25 6.77,-1.27 -1.09,-4.22 -5.12,-7.25 -0.79,-11.38 2.19,-2.09 6.19,-1.68 8.06,0.9 0.01,0.01 0.16,0.25 0.24,0.36 2.85,3.93 4.5,8.25 6.21,12.78 1.47,3.89 2.69,7.73 4.13,11.48 3.36,8.72 9.28,21.06 20.81,17.78 2.86,-0.81 5.33,-2.43 7.01,-4.89 1.92,-2.82 2.53,-5.93 2.15,-9.43 3.88,-0.98 7.23,-6.52 7.23,-11.4 -0,-2.78 -0.84,-5.35 -2.16,-7.22 -1.21,-1.71 -2.92,-3.67 -5.07,-4.19z"/>
   <path class="fil1" d="M36.68 28.12c0.16,0.11 0.32,0.22 0.49,0.32 0.05,0.03 0.08,0.05 0.09,0.05 0.04,0.03 0.09,0.04 0.14,0.04 0,0 0,-0 0,-0 0,0 0,0 0,0 0.08,-0.01 0.16,-0.05 0.2,-0.12 0.03,-0.05 0.04,-0.1 0.04,-0.15 -0.01,-0.08 -0.05,-0.16 -0.12,-0.2l-0.11 -0.07c-0.09,-0.06 -0.21,-0.13 -0.37,-0.24 -1,-0.69 -1.86,-1.55 -2.54,-2.55 -2.45,-3.63 -1.92,-8.65 1.26,-11.94 1.27,-1.28 2.73,-2.38 4.31,-3.25 -7.08,6.24 -5.44,11.19 -5.36,11.41 0.04,0.11 0.14,0.18 0.26,0.17 0.01,-0 0.01,-0 0.02,-0 4.55,-0.7 7.82,-2.66 9.71,-5.81 3.81,-6.35 0.69,-15.51 0.66,-15.6 -0.04,-0.11 -0.14,-0.18 -0.25,-0.17l-0 0c-0.11,0.01 -0.2,0.09 -0.23,0.19 -0.01,0.04 -0.99,4.07 -6.44,6.08 -2.94,1.03 -5.51,2.9 -7.42,5.36 -0.4,0.53 -0.71,1.12 -0.94,1.75 -2.71,7.62 4.47,13.26 6.61,14.74l0 0z"/>
  </g>
 </g>
</svg>
