<?xml version="1.0" encoding="UTF-8"?>
<!DOCTYPE svg PUBLIC "-//W3C//DTD SVG 1.1//EN" "http://www.w3.org/Graphics/SVG/1.1/DTD/svg11.dtd">
<!-- Creator: CorelDRAW 2021.5 -->
<svg xmlns="http://www.w3.org/2000/svg" xml:space="preserve" width="2.58052in" height="0.725035in" version="1.1" style="shape-rendering:geometricPrecision; text-rendering:geometricPrecision; image-rendering:optimizeQuality; fill-rule:evenodd; clip-rule:evenodd"
viewBox="0 0 831.25 233.55"
 xmlns:xlink="http://www.w3.org/1999/xlink"
 xmlns:xodm="http://www.corel.com/coreldraw/odm/2003">
 <defs>
  <style type="text/css">
   <![CDATA[
    .fil2 {fill:#FEFEFE;fill-rule:nonzero}
    .fil3 {fill:#D9DADA;fill-rule:nonzero}
    .fil1 {fill:#5F9C22;fill-rule:nonzero}
    .fil0 {fill:url(#id0)}
   ]]>
  </style>
  <linearGradient id="id0" gradientUnits="userSpaceOnUse" x1="73.32" y1="65.69" x2="161.61" y2="230.57">
   <stop offset="0" style="stop-opacity:1; stop-color:#453185"/>
   <stop offset="0.611765" style="stop-opacity:1; stop-color:#2475BA"/>
   <stop offset="1" style="stop-opacity:1; stop-color:#03B9F0"/>
  </linearGradient>
 </defs>
 <g id="Layer_x0020_1">
  <metadata id="CorelCorpID_0Corel-Layer"/>
  <path class="fil0" d="M211.39 110.86c1.11,-15.88 -3.14,-28.14 -13.32,-37.45 -23.13,-21.16 -62.18,-8.66 -68.22,21.82 -3.83,19.37 8.53,24.39 17.43,18.63 8.15,-5.27 1.23,-18.4 14.78,-25.62 7.61,-4.05 15.76,-1.69 21.33,3.77 12.39,12.15 -0.81,24.17 -3.92,35.2 6.25,1.64 17.02,1.73 22.3,4.54 13.07,6.97 12.84,25.63 -0.03,32.52 -2.62,1.4 -18.6,4.26 -21.88,4.34 2.2,10.12 12.48,18.11 7.17,30.69 -1.94,4.58 -6.6,8.15 -10.47,9.53 -11.58,4.14 -19.55,-3.88 -25.37,-12.18 -11.56,-16.51 -17.4,-36.43 -24.12,-55.35 -6.9,-19.44 -13.42,-38.34 -24.28,-55.34 -5.55,-7.48 -7.17,-9.99 -14.11,-16.03 -9.24,-6.85 -23.18,-8.87 -34.56,-5.89l-5.57 1.91c-9.62,3.87 -17.53,11.35 -21.7,20.8 -3.61,8.2 -4.42,15.37 -3.03,24.03 -13.54,2.61 -27.05,25.74 -23.13,45l1.73 6.19c1.53,4.22 2.82,7.11 5.01,10.06 5.73,7.73 9.22,9.25 16.41,13.82 -1.49,6.92 -0.14,14.72 1.81,20.1 1.25,3.43 1.95,4.9 3.59,7.54l4.54 5.94c12.14,14.69 31.86,17.22 48.91,9.86 9.74,-4.21 15.53,-11.52 20.09,-20.57 3.12,-6.2 6.43,-19.74 0.3,-25.29 -1.55,-1.4 -5.11,-3.44 -8.29,-3.44 -13.57,0 -9.84,11.86 -13.46,19.19 -6.24,12.64 -20.36,14.5 -30.45,3.91 -6.69,-7.02 -4.09,-15.87 -0.02,-23.41 2.13,-3.95 3.84,-6.49 5.09,-11.12 -5.68,-0.9 -18.35,-2.11 -22.38,-4.37 -13.15,-7.38 -12.73,-25.3 0.05,-32.26 3.32,-1.81 17.88,-4.08 22.05,-4.13 -3.55,-13.75 -16.66,-23.62 -2.58,-37.07 7.14,-6.82 20.17,-5.48 26.25,2.94 0.02,0.03 0.52,0.8 0.78,1.17 9.27,12.8 14.65,26.88 20.22,41.63 4.79,12.68 8.76,25.19 13.47,37.4 10.93,28.39 30.22,68.59 67.79,57.93 9.33,-2.65 17.37,-7.9 22.82,-15.92 6.26,-9.2 8.23,-19.32 6.99,-30.71 12.63,-3.2 23.57,-21.24 23.55,-37.13 -0.01,-9.05 -2.73,-17.43 -7.04,-23.53 -3.94,-5.57 -9.51,-11.95 -16.51,-13.65z"/>
  <path class="fil1" d="M119.47 91.58c0.51,0.36 1.04,0.72 1.58,1.05 0.17,0.1 0.28,0.16 0.29,0.18 0.14,0.09 0.3,0.13 0.47,0.12 0,0 0.01,0 0.01,-0 0,0 0.01,0 0.01,0 0.27,-0.02 0.5,-0.17 0.64,-0.39 0.09,-0.15 0.13,-0.32 0.12,-0.49 -0.02,-0.27 -0.17,-0.51 -0.39,-0.65l-0.36 -0.22c-0.28,-0.18 -0.69,-0.43 -1.22,-0.79 -3.24,-2.23 -6.05,-5.06 -8.26,-8.32 -7.99,-11.82 -6.27,-28.17 4.1,-38.89 4.14,-4.18 8.88,-7.74 14.04,-10.57 -23.05,20.33 -17.71,36.45 -17.46,37.16 0.12,0.36 0.46,0.59 0.84,0.56 0.02,-0 0.04,-0 0.07,-0.01 14.82,-2.28 25.46,-8.65 31.64,-18.93 12.42,-20.68 2.24,-50.53 2.14,-50.82 -0.12,-0.35 -0.45,-0.58 -0.82,-0.56l-0.02 0c-0.36,0.03 -0.66,0.28 -0.75,0.63 -0.02,0.13 -3.23,13.27 -20.99,19.79 -9.56,3.37 -17.96,9.45 -24.15,17.47 -1.29,1.73 -2.32,3.65 -3.05,5.69 -8.83,24.82 14.57,43.2 21.54,48l0 -0z"/>
  <path class="fil2" d="M367.96 121.5c0.2,0.14 0.4,0.28 0.61,0.41 0.07,0.04 0.11,0.06 0.11,0.07 0.05,0.03 0.12,0.05 0.18,0.05 0,0 0,0 0,0 0,-0 0,-0 0,-0 0.1,-0.01 0.2,-0.06 0.25,-0.15 0.03,-0.06 0.05,-0.12 0.04,-0.19 -0.01,-0.1 -0.06,-0.2 -0.15,-0.25l-0.14 -0.09c-0.11,-0.07 -0.27,-0.17 -0.47,-0.31 -1.26,-0.86 -2.34,-1.96 -3.2,-3.22 -3.09,-4.58 -2.43,-10.91 1.59,-15.06 1.6,-1.62 3.44,-3 5.44,-4.09 -8.93,7.87 -6.86,14.11 -6.76,14.39 0.05,0.14 0.18,0.23 0.32,0.22 0.01,-0 0.02,-0 0.03,-0 5.74,-0.89 9.86,-3.35 12.25,-7.33 4.81,-8.01 0.87,-19.56 0.83,-19.68 -0.04,-0.14 -0.18,-0.22 -0.32,-0.22l-0.01 0c-0.14,0.01 -0.26,0.11 -0.29,0.24 -0.01,0.05 -1.25,5.14 -8.13,7.66 -3.7,1.3 -6.95,3.66 -9.35,6.77 -0.5,0.67 -0.9,1.41 -1.18,2.2 -3.42,9.61 5.64,16.73 8.34,18.59l0 -0z"/>
  <path class="fil2" d="M264.65 178.17c0,0 0,0 0,0 0,0 0,0 0,0l0 -71.07c0,0 0,0 0,0 0,0 0,0 0,0l19.21 0c0.03,0 0.03,0 0.03,0 -0.03,0 -0.03,0 -0.03,0l20.5 51.02 0.35 0 20.2 -51.02c0,0 0,0 0,0 0,0 0.02,0 0.05,0l19.21 0c0,0 0,0 0,0 0,0 0,0 0,0l0 71.07c0,0 0.02,0 0.03,0 0.02,0 0,0 -0.03,0l-15.19 0c0,0 0,0 0,0 0,0 0,0 0,0l0.05 -34.74 0.35 -11.32 -0.35 0 -18.51 46.06c0,0 0,0 0,0 0,0 0,0 0,0l-12.21 0c0,0 0,0 0,0 0,0 0.02,0 0.05,0l-18.46 -46.06 -0.35 0 0.35 11.32 0 34.74c0,0 0,0 0,0 0,0 0,0 0,0l-15.24 0zm93.26 0c0,0 0,0 0,0 0,0 0,0 0,0l0 -51.02c0,0 0,0 0,0 0,0 0,0 0,0l15.48 0c0,0 0,0 0,0 0,0 0,0 0,0l0 51.02c0,0 0,0 0,0 0,0 0,0 0,0l-15.48 0zm27.89 0l0 -51.02c0,0 0,0 0,0 0,0 0,0 0,0l14.84 0c0,0 0,0 0,0 0,0 0,0 0,0l0 9.38 -1.54 -1.99 1.89 0c1.66,-2.85 4.05,-5.08 7.18,-6.7 3.11,-1.62 6.32,-2.43 9.6,-2.43 5.66,0 10.14,1.72 13.43,5.16 3.27,3.44 4.93,8.06 4.93,13.85l0 33.75c0,0 0,0 0,0 0,0 0,0 0,0l-15.48 0c0,0 0,0 0,0 0,0 0,0 0,0l0 -30.13c0,-3.24 -0.79,-5.72 -2.38,-7.43 -1.59,-1.7 -3.89,-2.55 -6.9,-2.55 -2.88,0 -5.28,1.09 -7.16,3.29 -1.9,2.2 -2.86,4.91 -2.86,8.12l-0.05 28.69c0,0 0,0 0,0 0,0 0,0 0,0l-15.48 0c0,0 0,0 0,0 0,0 0,0 0,0zm82.29 1.74c-6.88,0 -12.56,-2.47 -16.99,-7.39 -4.45,-4.93 -6.68,-11.5 -6.68,-19.7l0 -0.05c0,-8.07 2.3,-14.64 6.88,-19.7 4.57,-5.06 10.41,-7.59 17.49,-7.59 3.31,0 6.34,0.68 9.08,2.04 2.75,1.36 4.8,3.13 6.15,5.31l0.35 0.05 0 -25.76c0,0 0,0 0,0 0,0 0,0 0,0l15.29 0c0,0 0,0 0,0 0,0 0,0 0,0l0 71.07c0,0 0,0 0.03,0 0,0 0,0 -0.03,0l-14.79 0c0,0 0,0 0,0 0,0 0,0 0,0l0 -8.24 1.49 1.98 -1.84 0c-1.49,2.42 -3.69,4.35 -6.62,5.81 -2.94,1.46 -6.2,2.18 -9.81,2.18zm3.97 -12.9c3.61,0 6.62,-1.34 9.03,-4.02 2.42,-2.68 3.62,-6.12 3.62,-10.32l0 0c0,-4.2 -1.21,-7.63 -3.64,-10.27 -2.43,-2.65 -5.44,-3.97 -9.02,-3.97 -3.54,0 -6.52,1.32 -8.95,3.97 -2.43,2.65 -3.67,6.09 -3.71,10.32l0 0c0.03,4.14 1.26,7.54 3.67,10.24 2.41,2.7 5.41,4.05 8.98,4.05z"/>
  <path class="fil2" d="M535.04 179.91c-4.33,0 -8.19,-0.68 -11.58,-2.02 -3.39,-1.32 -6.25,-3.19 -8.57,-5.58 -2.32,-2.38 -4.05,-4.91 -5.23,-7.58 -1.18,-2.65 -1.77,-3.99 -1.77,-3.99 0,0 0,0 0,0l13.4 -5.51c0,0 0,0 0,0 0,0 0.36,0.83 1.12,2.5 0.75,1.67 1.74,3.21 3,4.6 1.26,1.39 2.76,2.47 4.52,3.23 1.75,0.76 3.72,1.14 5.91,1.14 3.14,0 5.72,-0.78 7.73,-2.33 2,-1.55 2.99,-3.62 2.99,-6.2l0 0c0,-2.45 -1.32,-4.48 -3.99,-6.11 -2.66,-1.62 -6.73,-3.34 -12.19,-5.16 -6.65,-2.18 -11.65,-4.96 -14.99,-8.34 -3.34,-3.37 -5.01,-7.61 -5.01,-12.7l0 0c0,-5.92 2.33,-10.82 7,-14.69 4.66,-3.87 10.67,-5.81 18.02,-5.81 3.87,0 7.35,0.55 10.41,1.64 3.06,1.09 5.69,2.66 7.91,4.72 2.22,2.05 3.82,4.09 4.81,6.07 0.99,2.02 1.49,3.01 1.49,3.01 0,0 0,0 0,0l-13 5.31c0,0 0,0 0,0 0,0 -0.28,-0.5 -0.84,-1.52 -0.56,-0.99 -1.39,-2.02 -2.5,-3.04 -1.11,-1.03 -2.41,-1.8 -3.9,-2.37 -1.49,-0.53 -3.14,-0.81 -4.96,-0.81 -2.71,0 -4.91,0.63 -6.62,1.85 -1.7,1.26 -2.56,2.88 -2.56,4.9l0 0c0,1.92 0.86,3.54 2.58,4.88 1.72,1.34 5.82,3.04 12.31,5.1 7.35,2.22 12.74,5.23 16.18,9.05 3.44,3.84 5.16,8.34 5.16,13.53l0 0c0,6.65 -2.5,12.01 -7.5,16.1 -5,4.09 -11.43,6.14 -19.31,6.14zm35.54 19.7c0,0 0,0 0,0 0,0 0,0 0,0l0 -72.46c0,0 0,0 0,0 0,0 0,0 0,0l14.84 0c0,0 0,0 0,0 0,0 0,0 0,0l0 9.83 -3.47 -3.72 3.82 0c1.49,-2.28 3.71,-4.17 6.63,-5.64 2.91,-1.46 6.25,-2.2 9.99,-2.2 6.91,0 12.59,2.47 17.02,7.4 4.43,4.93 6.65,11.5 6.65,19.7l0 0c0,7.97 -2.25,14.54 -6.72,19.67 -4.48,5.15 -10.21,7.73 -17.16,7.73 -3.47,0 -6.62,-0.68 -9.43,-2.04 -2.81,-1.36 -4.91,-3.13 -6.3,-5.31l-0.4 0 0 27.05c0,0 0,0 0,0 0,0 0.02,0 0.05,0l-15.53 0zm27.79 -32.66c3.61,0 6.62,-1.34 9.02,-4.02 2.4,-2.68 3.59,-6.09 3.59,-10.22l0 0c0,-4.3 -1.21,-7.76 -3.62,-10.41 -2.41,-2.63 -5.41,-3.94 -8.98,-3.94 -3.54,0 -6.54,1.31 -8.95,3.94 -2.43,2.65 -3.67,6.09 -3.71,10.36l0 0c0.03,4.17 1.26,7.59 3.67,10.27 2.42,2.68 5.41,4.02 8.98,4.02zm36.53 11.22c0,0 0,0 0,0 0,0 0,0 0,0l0 -51.02c0,0 0,0 0,0 0,0 0,0 0,0l14.84 0c0,0 0,0 0,0 0,0 0,0 0,0l0 9.78 -1.54 -1.99 1.89 0c0.96,-2.81 2.76,-5.11 5.39,-6.88 2.61,-1.75 5.44,-2.65 8.45,-2.65 0.93,0 1.87,0.08 2.83,0.25 0.96,0.16 1.85,0.4 2.66,0.66 0.81,0.3 1.21,0.43 1.21,0.43 0,0 0,0 0,0l0 14.39c0,0 0,0 0,0 0,0 -0.53,-0.21 -1.59,-0.63 -1.06,-0.41 -2.2,-0.74 -3.44,-1.01 -1.24,-0.27 -2.43,-0.4 -3.56,-0.4 -3.44,0 -6.24,1.21 -8.39,3.62 -2.15,2.42 -3.23,5.56 -3.23,9.43l-0.05 26.01c0,0 0,0 0,0 0,0 0,0 0,0l-15.49 0zm66.36 1.74c-8.17,0 -14.89,-2.58 -20.12,-7.73 -5.24,-5.13 -7.87,-11.63 -7.87,-19.47l0 -0.05c0,-7.97 2.63,-14.51 7.89,-19.61 5.26,-5.1 11.96,-7.64 20.1,-7.64 8.14,0 14.86,2.56 20.13,7.66 5.26,5.11 7.89,11.66 7.86,19.64l0.05 -0.05c0,7.87 -2.63,14.39 -7.86,19.52 -5.24,5.15 -11.98,7.73 -20.18,7.73zm0 -12.95c3.71,-0.03 6.8,-1.39 9.26,-4.07 2.47,-2.68 3.69,-6.07 3.69,-10.17l0 0c0,-4.27 -1.24,-7.73 -3.72,-10.37 -2.48,-2.65 -5.56,-3.97 -9.23,-3.97 -3.67,0 -6.75,1.32 -9.23,3.99 -2.48,2.68 -3.72,6.11 -3.72,10.31l0 0c0,4.14 1.24,7.54 3.71,10.22 2.47,2.68 5.54,4.04 9.25,4.07zm55.29 12.95c-5.96,0 -10.62,-1.7 -13.96,-5.1 -3.36,-3.37 -5.05,-8.17 -5.05,-14.36l0 -33.3c0,0 0,0 0,0 0,0 0,0 0,0l15.48 0c0,0 0,0 0,0 0,0 0,0 0,0l0 30.92c0,3.31 0.78,5.86 2.33,7.61 1.55,1.77 3.72,2.68 6.5,2.71 2.98,-0.03 5.48,-1.19 7.48,-3.46 2,-2.25 2.99,-5.05 2.99,-8.35l0 -29.43c0,0 0,0 0,0 0,0 0,0 0,0l15.48 0c0,0 0,0 0.03,0 0,0 0,0 -0.03,0l0 51.02c0,0 0,0 0,0 0,0 0,0 0,0l-14.54 0c0,0 0,0 0,0 0,0 0,0 0,0l0 -13.8 7.05 7.05 -7.39 0c-1.42,2.51 -3.56,4.55 -6.42,6.12 -2.88,1.57 -6.19,2.37 -9.96,2.37zm64.62 0c-5.56,0 -9.88,-1.46 -12.97,-4.37 -3.09,-2.91 -4.65,-7.28 -4.65,-13.1l0 -49.18c0,0 0,0 0,0 0,0 0,0 0,0l15.44 0c0,0 0,0 0,0 0,0 0,0 0,0l0 47.1c0,2.45 0.51,4.29 1.54,5.48 1.02,1.21 2.55,1.82 4.57,1.82 0.66,0 1.32,-0.07 2.02,-0.18 0.68,-0.12 1.52,-0.35 2.55,-0.69 1.03,-0.35 1.54,-0.51 1.54,-0.51 0,0 0.02,0 0.05,0l-0.05 11.96c0,0 0.02,0 0.03,0 0.02,0 -0.63,0.18 -1.94,0.55 -1.31,0.36 -2.58,0.65 -3.8,0.84 -1.22,0.2 -2.66,0.3 -4.32,0.3zm-25.26 -41.09c0,0 0,0 0,0 0,0 0,0 0,0l0 -11.66c0,0 0,0 0,0 0,0 0,0 0,0l35.24 0c0,0 0,0 0,0 0,0 0,0 0,0l0 11.66c0,0 0,0 0,0 0,0 0,0 0,0l-35.24 0z"/>
  <path class="fil3" d="M273.42 215.26l-7.58 -11.98c0,0 0,0 0,0 0,0 0,0 0,0l3.1 0c0,0 0,0 0,0 0,0 0,0 0,0l5 8.2 0.65 1.07 0.09 0 0.63 -1.05 4.96 -8.22c0,0 0,0 0,0 0,0 0,0 0,0l3.06 0c0,0 0,0 0,0 0,0 0,0 0,0l-7.43 11.97 -2.49 0.02zm-0.08 10.13c0,0 0,0 0,0 0,0 0,0 0,0l0 -11.46 2.63 0 0 11.46c0,0 0,0 0,0 0,0 0,0 0,0l-2.63 0zm24.41 0.49c-2.33,0 -4.26,-0.8 -5.79,-2.39 -1.53,-1.6 -2.3,-3.59 -2.3,-5.99l0 0c0,-2.44 0.77,-4.44 2.31,-6.01 1.53,-1.56 3.46,-2.35 5.78,-2.35 2.31,0 4.23,0.79 5.78,2.37 1.54,1.58 2.32,3.58 2.32,5.99l0 0c0,2.4 -0.77,4.4 -2.29,5.99 -1.53,1.6 -3.46,2.39 -5.8,2.39zm0 -2.38c1.54,0 2.84,-0.56 3.89,-1.68 1.05,-1.12 1.58,-2.56 1.58,-4.32l0 0c0,-1.79 -0.53,-3.24 -1.59,-4.33 -1.06,-1.1 -2.35,-1.64 -3.88,-1.64 -1.54,0 -2.84,0.55 -3.9,1.65 -1.06,1.1 -1.59,2.54 -1.59,4.32l0 0c0,1.76 0.53,3.2 1.57,4.32 1.04,1.12 2.35,1.68 3.91,1.68zm24.52 2.38c-1.87,0 -3.32,-0.55 -4.32,-1.65 -1.01,-1.1 -1.51,-2.66 -1.51,-4.68l0 -9.91c0,0 0,0 0,0 0,0 0,0 0,0l2.62 0c0,0 0,0 0,0 0,0 0,0 0,0l0 9.51c0,1.42 0.32,2.5 0.97,3.24 0.65,0.74 1.58,1.11 2.8,1.11 1.28,0 2.35,-0.49 3.23,-1.47 0.88,-0.98 1.31,-2.15 1.31,-3.5l0 -8.9c0,0 0,0 0,0 0,0 0,0 0,0l2.63 0c0,0 0,0 0,0 0,0 0,0 0,0l0 15.75c0,0 0,0 0,0 0,0 0,0 0,0l-2.5 0c0,0 0,0 0,0 0,0 0,0 0,0l0 -3.47 1.19 1.19 -1.28 0c-0.45,0.8 -1.16,1.47 -2.12,1.99 -0.96,0.53 -1.96,0.79 -3.01,0.79zm19.27 -0.49c0,0 0,0 0,0 0,0 0,0 0,0l0 -15.75c0,0 0,0 0,0 0,0 0,0 0,0l2.5 0c0,0 0,0 0,0 0,0 0,0 0,0l0 2.84 -0.42 -0.31 0.51 0c0.29,-0.84 0.88,-1.56 1.76,-2.15 0.89,-0.59 1.8,-0.88 2.75,-0.88 0.27,0 0.55,0.02 0.84,0.06 0.29,0.04 0.55,0.1 0.77,0.16 0.22,0.07 0.33,0.1 0.33,0.1 0,0 0,0 0,0l0 2.78c0,0 0,0 0,0 0,0 -0.16,-0.05 -0.48,-0.14 -0.32,-0.09 -0.64,-0.16 -0.96,-0.21 -0.33,-0.05 -0.59,-0.07 -0.78,-0.07 -1.15,0 -2.14,0.46 -2.97,1.37 -0.82,0.92 -1.24,2.02 -1.24,3.32l0 8.86c0,0 0,0 0,0 0,0 0,0 0,0l-2.63 0zm26.71 0c0,0 0,0 0,0 0,0 0,0 0,0l0 -22.11c0,0 0,0 0,0 0,0 0,0 0,0l6.67 0c3.37,0 6.07,1 8.12,3.02 2.04,2.02 3.06,4.68 3.06,7.99l0 0c0,3.35 -1.02,6.03 -3.06,8.06 -2.04,2.03 -4.75,3.04 -8.12,3.04l-6.67 0zm2.63 -2.5l4.05 0c2.66,0 4.74,-0.76 6.25,-2.27 1.51,-1.51 2.27,-3.62 2.27,-6.33l0 0c0,-2.68 -0.76,-4.77 -2.28,-6.26 -1.52,-1.49 -3.6,-2.24 -6.25,-2.24l-4.05 0 0 17.11zm31.25 3c-1.75,0 -3.18,-0.5 -4.28,-1.49 -1.1,-0.99 -1.65,-2.27 -1.65,-3.83l0 0c0,-1.58 0.62,-2.84 1.86,-3.8 1.24,-0.96 2.83,-1.44 4.78,-1.44 0.86,0 1.71,0.1 2.55,0.29 0.83,0.2 1.49,0.44 1.96,0.73l0 -0.96c0,-1.15 -0.41,-2.09 -1.22,-2.81 -0.81,-0.72 -1.86,-1.08 -3.13,-1.08 -0.68,0 -1.25,0.08 -1.71,0.24 -0.46,0.16 -0.85,0.36 -1.16,0.59 -0.32,0.23 -0.62,0.51 -0.91,0.83 -0.29,0.32 -0.44,0.48 -0.44,0.48 0,0 0,0 0,0l-1.99 -1.48c0,0 0,0 0,0 0,0 0.2,-0.22 0.6,-0.65 0.39,-0.43 0.84,-0.82 1.35,-1.17 0.5,-0.35 1.08,-0.63 1.74,-0.85 0.65,-0.22 1.5,-0.32 2.54,-0.32 2.12,0 3.79,0.56 5.02,1.68 1.23,1.12 1.84,2.65 1.84,4.59l0 9.98c0,0 0,0 0,0 0,0 0,0 0,0l-2.5 0c0,0 0,0 0,0 0,0 0,0 0,0l0 -3.81 0.93 1.54 -1.02 0c-0.49,0.82 -1.2,1.49 -2.13,2 -0.93,0.51 -1.93,0.77 -3,0.77zm0.25 -2.33c1.37,0 2.54,-0.48 3.51,-1.45 0.97,-0.97 1.46,-2.15 1.46,-3.54l0 0c-0.51,-0.35 -1.13,-0.62 -1.85,-0.82 -0.72,-0.2 -1.47,-0.29 -2.25,-0.29 -1.34,0 -2.4,0.26 -3.18,0.79 -0.78,0.53 -1.17,1.31 -1.17,2.36l0 0c0,0.88 0.33,1.59 0.99,2.13 0.66,0.55 1.49,0.82 2.5,0.82zm19.13 1.84c0,0 0,0 0,0 0,0 0,0 0,0l0 -15.75c0,0 0,0 0,0 0,0 0,0 0,0l2.63 0c0,0 0,0 0,0 0,0 0,0 0,0l0 15.75c0,0 0,0 0,0 0,0 0,0 0,0l-2.63 0zm1.31 -19.02c-0.48,0 -0.9,-0.18 -1.25,-0.53 -0.35,-0.35 -0.53,-0.77 -0.53,-1.25 0,-0.5 0.18,-0.92 0.53,-1.25 0.35,-0.33 0.77,-0.49 1.25,-0.49 0.5,0 0.92,0.16 1.25,0.49 0.33,0.33 0.49,0.75 0.49,1.25 0,0.48 -0.16,0.9 -0.49,1.25 -0.33,0.35 -0.75,0.53 -1.25,0.53zm13.09 19.02c0,0 0,0 0,0 0,0 0,0 0,0l0 -22.11c0,0 0,0 0,0 0,0 0,0 0,0l2.63 0c0,0 0,0 0,0 0,0 0,0 0,0l0 22.11c0,0 0,0 0,0 0,0 0,0 0,0l-2.63 0zm15.42 6.67c0,0 0,0 0,0 0,0 0,0 0,0l3.97 -8.65 0.09 1.98 -7.06 -15.75c0,0 0,0 0,0 0,0 0,0 0,0l2.84 0c0,0 0,0 0,0 0,0 0,0 0,0l4.57 10.62 0.39 1.08 0.09 0 0.42 -1.11 4.29 -10.59c0,0 0,0 0,0 0,0 0,0 0,0l2.83 0c0,0 0,0 0,0 0,0 0,0 0,0l-9.7 22.42c0,0 0,0 0,0 0,0 0,0 0,0l-2.73 0zm29.72 -6.67c0,0 0,0 0,0 0,0 0,0 0,0l0 -22.11c0,0 0,0 0,0 0,0 0,0 0,0l7.29 0c2.12,0 3.83,0.66 5.13,1.98 1.3,1.33 1.95,3.03 1.95,5.12l0 0c0,2.07 -0.66,3.72 -1.99,4.96 -1.33,1.24 -3.07,1.85 -5.24,1.85l-5.74 0 0 -2.42 5.81 0c1.35,0 2.44,-0.41 3.27,-1.21 0.83,-0.81 1.24,-1.86 1.24,-3.17l0 0c0,-1.34 -0.4,-2.44 -1.19,-3.3 -0.8,-0.86 -1.85,-1.3 -3.16,-1.3l-4.73 0 0 19.61c0,0 0,0 0,0 0,0 0,0 0,0l-2.63 0zm29.26 0.49c-1.75,0 -3.18,-0.5 -4.28,-1.49 -1.1,-0.99 -1.65,-2.27 -1.65,-3.83l0 0c0,-1.58 0.62,-2.84 1.86,-3.8 1.24,-0.96 2.83,-1.44 4.78,-1.44 0.86,0 1.71,0.1 2.55,0.29 0.83,0.2 1.49,0.44 1.96,0.73l0 -0.96c0,-1.15 -0.41,-2.09 -1.22,-2.81 -0.81,-0.72 -1.86,-1.08 -3.13,-1.08 -0.68,0 -1.25,0.08 -1.71,0.24 -0.46,0.16 -0.85,0.36 -1.16,0.59 -0.32,0.23 -0.62,0.51 -0.91,0.83 -0.29,0.32 -0.44,0.48 -0.44,0.48 0,0 0,0 0,0l-1.99 -1.48c0,0 0,0 0,0 0,0 0.2,-0.22 0.6,-0.65 0.39,-0.43 0.84,-0.82 1.35,-1.17 0.5,-0.35 1.08,-0.63 1.74,-0.85 0.65,-0.22 1.5,-0.32 2.54,-0.32 2.12,0 3.79,0.56 5.02,1.68 1.23,1.12 1.84,2.65 1.84,4.59l0 9.98c0,0 0,0 0,0 0,0 0,0 0,0l-2.5 0c0,0 0,0 0,0 0,0 0,0 0,0l0 -3.81 0.93 1.54 -1.02 0c-0.49,0.82 -1.2,1.49 -2.13,2 -0.93,0.51 -1.93,0.77 -3,0.77zm0.25 -2.33c1.37,0 2.54,-0.48 3.52,-1.45 0.97,-0.97 1.46,-2.15 1.46,-3.54l0 0c-0.51,-0.35 -1.13,-0.62 -1.85,-0.82 -0.72,-0.2 -1.47,-0.29 -2.25,-0.29 -1.34,0 -2.4,0.26 -3.18,0.79 -0.78,0.53 -1.17,1.31 -1.17,2.36l0 0c0,0.88 0.33,1.59 0.99,2.13 0.66,0.55 1.49,0.82 2.5,0.82zm18.9 1.84c0,0 0,0 0,0 0,0 0,0 0,0l0 -15.75c0,0 0,0 0,0 0,0 0,0 0,0l2.5 0c0,0 0,0 0,0 0,0 0,0 0,0l0 2.84 -0.42 -0.31 0.51 0c0.29,-0.84 0.88,-1.56 1.76,-2.15 0.89,-0.59 1.8,-0.88 2.75,-0.88 0.27,0 0.55,0.02 0.84,0.06 0.29,0.04 0.55,0.1 0.77,0.16 0.22,0.07 0.33,0.1 0.33,0.1 0,0 0,0 0,0l0 2.78c0,0 0,0 0,0 0,0 -0.16,-0.05 -0.48,-0.14 -0.32,-0.09 -0.64,-0.16 -0.96,-0.21 -0.33,-0.05 -0.59,-0.07 -0.78,-0.07 -1.15,0 -2.14,0.46 -2.97,1.37 -0.82,0.92 -1.24,2.02 -1.24,3.32l0 8.86c0,0 0,0 0,0 0,0 0,0 0,0l-2.63 0zm25.17 0.49c-1.27,0 -2.29,-0.4 -3.08,-1.18 -0.79,-0.79 -1.18,-1.85 -1.18,-3.19l0 -16.32c0,0 0,0 0,0 0,0 0,0 0,0l2.63 0c0,0 0,0 0,0 0,0 0,0 0,0l0 15.67c0,0.89 0.18,1.54 0.53,1.96 0.35,0.42 0.87,0.63 1.56,0.63 0.16,0 0.35,-0.02 0.56,-0.06 0.21,-0.03 0.47,-0.1 0.8,-0.21 0.32,-0.1 0.48,-0.15 0.48,-0.15 0,0 0,0 0,0l0 2.44c0,0 0,0 0,0 0,0 -0.14,0.05 -0.42,0.13 -0.29,0.08 -0.57,0.15 -0.86,0.2 -0.29,0.05 -0.62,0.07 -1,0.07zm-7.01 -13.87c0,0 0,0 0,0 0,0 0,0 0,0l0 -2.38c0,0 0,0 0,0 0,0 0,0 0,0l9.23 0c0,0 0,0 0,0 0,0 0,0 0,0l0 2.38c0,0 0,0 0,0 0,0 0,0 0,0l-9.23 0zm20.01 13.37l0 -15.75c0,0 0,0 0,0 0,0 0,0 0,0l2.5 0c0,0 0,0 0,0 0,0 0,0 0,0l0 2.78 -0.42 -0.46 0.51 0c0.45,-0.8 1.16,-1.47 2.12,-2.01 0.96,-0.54 1.96,-0.8 3.01,-0.8 1.85,0 3.29,0.54 4.31,1.62 1.02,1.08 1.53,2.59 1.53,4.52l0 10.1c0,0 0,0 0,0 0,0 0,0 0,0l-2.63 0c0,0 0,0 0,0 0,0 0,0 0,0l0 -9.7c0,-1.38 -0.33,-2.42 -0.99,-3.12 -0.66,-0.7 -1.64,-1.05 -2.93,-1.05 -1.24,0 -2.28,0.49 -3.12,1.48 -0.84,0.99 -1.27,2.16 -1.27,3.52l0 8.86c0,0 0,0 0,0 0,0 0,0 0,0l-2.63 0c0,0 0,0 0,0 0,0 0,0 0,0zm31.99 0.49c-2.29,0 -4.16,-0.79 -5.64,-2.36 -1.47,-1.58 -2.21,-3.59 -2.21,-6.04l0 0c0,-2.4 0.72,-4.39 2.16,-5.97 1.44,-1.58 3.26,-2.37 5.47,-2.37 2.27,0 4.08,0.68 5.45,2.04 1.37,1.36 2.05,3.06 2.05,5.09l0 1.73c0,0 0,0 0,0 0,0 0,0 0,0l-13.59 0 0 -2.16 10.84 0 0 0c-0.06,-1.24 -0.52,-2.27 -1.37,-3.09 -0.85,-0.82 -1.98,-1.24 -3.38,-1.24 -1.48,0 -2.69,0.54 -3.61,1.62 -0.93,1.08 -1.39,2.53 -1.39,4.34l0 0c0,1.83 0.51,3.29 1.54,4.39 1.02,1.09 2.3,1.64 3.82,1.64 0.72,0 1.33,-0.1 1.85,-0.29 0.51,-0.2 0.97,-0.47 1.38,-0.83 0.41,-0.36 0.88,-0.93 1.39,-1.72 0,0 0,0 0,0 0,0 0,0 0,0l2.21 1.08c0,0 0,0 0,0 0,0 0,0 0,0 -0.56,1.12 -1.17,1.96 -1.84,2.5 -0.67,0.55 -1.42,0.96 -2.22,1.23 -0.81,0.27 -1.78,0.41 -2.9,0.41zm18.03 -0.49c0,0 0,0 0,0 0,0 0,0 0,0l0 -15.75c0,0 0,0 0,0 0,0 0,0 0,0l2.5 0c0,0 0,0 0,0 0,0 0,0 0,0l0 2.84 -0.42 -0.31 0.51 0c0.29,-0.84 0.88,-1.56 1.76,-2.15 0.89,-0.59 1.8,-0.88 2.75,-0.88 0.27,0 0.55,0.02 0.84,0.06 0.29,0.04 0.55,0.1 0.77,0.16 0.22,0.07 0.33,0.1 0.33,0.1 0,0 0,0 0,0l0 2.78c0,0 0,0 0,0 0,0 -0.16,-0.05 -0.48,-0.14 -0.32,-0.09 -0.64,-0.16 -0.96,-0.21 -0.33,-0.05 -0.59,-0.07 -0.78,-0.07 -1.15,0 -2.14,0.46 -2.96,1.37 -0.82,0.92 -1.24,2.02 -1.24,3.32l0 8.86c0,0 0,0 0,0 0,0 0,0 0,0l-2.63 0zm26.42 0c0,0 0,0 0,0 0,0 0,0 0,0l0 -15.75c0,0 0,0 0,0 0,0 0,0 0,0l2.63 0c0,0 0,0 0,0 0,0 0,0 0,0l0 15.75c0,0 0,0 0,0 0,0 0,0 0,0l-2.63 0zm1.31 -19.02c-0.48,0 -0.9,-0.18 -1.25,-0.53 -0.35,-0.35 -0.53,-0.77 -0.53,-1.25 0,-0.5 0.18,-0.92 0.53,-1.25 0.35,-0.33 0.77,-0.49 1.25,-0.49 0.5,0 0.92,0.16 1.25,0.49 0.33,0.33 0.49,0.75 0.49,1.25 0,0.48 -0.16,0.9 -0.49,1.25 -0.33,0.35 -0.75,0.53 -1.25,0.53zm13.09 19.02l0 -15.75c0,0 0,0 0,0 0,0 0,0 0,0l2.5 0c0,0 0,0 0,0 0,0 0,0 0,0l0 2.78 -0.42 -0.46 0.51 0c0.45,-0.8 1.16,-1.47 2.12,-2.01 0.96,-0.54 1.96,-0.8 3.01,-0.8 1.85,0 3.29,0.54 4.31,1.62 1.02,1.08 1.53,2.59 1.53,4.52l0 10.1c0,0 0,0 0,0 0,0 0,0 0,0l-2.63 0c0,0 0,0 0,0 0,0 0,0 0,0l0 -9.7c0,-1.38 -0.33,-2.42 -0.99,-3.12 -0.66,-0.7 -1.64,-1.05 -2.93,-1.05 -1.24,0 -2.28,0.49 -3.12,1.48 -0.84,0.99 -1.27,2.16 -1.27,3.52l0 8.86c0,0 0,0 0,0 0,0 0,0 0,0l-2.63 0c0,0 0,0 0,0 0,0 0,0 0,0zm42.83 0.49c-3.19,-0.05 -5.9,-1.19 -8.12,-3.43 -2.22,-2.23 -3.34,-4.96 -3.34,-8.18l0 0c0,-3.24 1.12,-5.97 3.35,-8.18 2.23,-2.21 4.94,-3.31 8.11,-3.31 1.05,0 2.06,0.11 3.02,0.34 0.96,0.23 1.82,0.55 2.58,0.98 0.76,0.43 1.38,0.89 1.88,1.36 0.48,0.48 0.73,0.72 0.73,0.72 0,0 0,0 0,0l-1.82 1.87c0,0 0,0 0,0 0,0 -0.22,-0.21 -0.65,-0.64 -0.44,-0.42 -0.95,-0.8 -1.52,-1.13 -0.58,-0.32 -1.21,-0.57 -1.91,-0.74 -0.7,-0.16 -1.45,-0.25 -2.24,-0.25 -2.49,0 -4.59,0.83 -6.3,2.5 -1.71,1.67 -2.56,3.82 -2.56,6.47l0 0c0,2.65 0.85,4.83 2.56,6.55 1.71,1.72 3.8,2.58 6.27,2.58 2.33,0 4.23,-0.64 5.7,-1.93 1.47,-1.29 2.3,-3.08 2.49,-5.39l0 0 -8.15 0c0,0 0,0 0,0 0,0 0,0 0,0l0 -2.44c0,0 0,0 0,0 0,0 0,0 0,0l10.75 0c0,0 0,0 0,0 0,0 0,0 0,0l0.03 1.58c0,3.15 -1.01,5.72 -3.04,7.7 -2.03,1.99 -4.63,2.98 -7.8,2.98zm21.12 -0.49c0,0 0,0 0,0 0,0 0,0 0,0l0 -15.75c0,0 0,0 0,0 0,0 0,0 0,0l2.5 0c0,0 0,0 0,0 0,0 0,0 0,0l0 2.84 -0.42 -0.31 0.51 0c0.29,-0.84 0.88,-1.56 1.76,-2.15 0.89,-0.59 1.8,-0.88 2.75,-0.88 0.27,0 0.55,0.02 0.84,0.06 0.29,0.04 0.55,0.1 0.77,0.16 0.22,0.07 0.33,0.1 0.33,0.1 0,0 0,0 0,0l0 2.78c0,0 0,0 0,0 0,0 -0.16,-0.05 -0.48,-0.14 -0.32,-0.09 -0.64,-0.16 -0.96,-0.21 -0.33,-0.05 -0.59,-0.07 -0.78,-0.07 -1.15,0 -2.14,0.46 -2.97,1.37 -0.82,0.92 -1.24,2.02 -1.24,3.32l0 8.86c0,0 0,0 0,0 0,0 0,0 0,0l-2.63 0zm25.69 0.49c-2.33,0 -4.26,-0.8 -5.79,-2.39 -1.53,-1.6 -2.3,-3.59 -2.3,-5.99l0 0c0,-2.44 0.77,-4.44 2.31,-6.01 1.53,-1.56 3.46,-2.35 5.78,-2.35 2.31,0 4.23,0.79 5.77,2.37 1.54,1.58 2.32,3.58 2.32,5.99l0 0c0,2.4 -0.77,4.4 -2.29,5.99 -1.53,1.6 -3.46,2.39 -5.8,2.39zm0 -2.38c1.54,0 2.84,-0.56 3.89,-1.68 1.05,-1.12 1.58,-2.56 1.58,-4.32l0 0c0,-1.79 -0.53,-3.24 -1.59,-4.33 -1.06,-1.1 -2.35,-1.64 -3.88,-1.64 -1.54,0 -2.84,0.55 -3.9,1.65 -1.06,1.1 -1.59,2.54 -1.59,4.32l0 0c0,1.76 0.53,3.2 1.57,4.32 1.04,1.12 2.35,1.68 3.91,1.68zm21.57 1.88c0,0 0,0 0,0 0,0 0,0 0,0l-5 -15.75c0,0 0,0 0,0 0,0 0,0 0,0l2.7 0c0,0 0,0 0,0 0,0 0,0 0,0l3.29 11.04 0.42 1.41 0.09 0 0.42 -1.3 3.52 -11.15c0,0 0,0 0,0 0,0 0,0 0,0l2.7 0c0,0 0,0 0,0 0,0 0,0 0,0l3.52 11.06 0.43 1.36 0.09 0 0.4 -1.33 3.3 -11.09c0,0 0,0 0,0 0,0 0,0 0,0l2.66 0c0,0 0,0 0,0 0,0 0,0 0,0l-5.08 15.75c0,0 0,0 0,0 0,0 0,0 0,0l-2.7 0c0,0 0,0 0,0 0,0 0,0 0,0l-3.68 -11.41 -0.31 -1.11 -0.09 0 -0.34 1.11 -3.63 11.41c0,0 0,0 0,0 0,0 0,0 0,0l-2.72 0zm34.29 0.49c-1.27,0 -2.29,-0.4 -3.08,-1.18 -0.79,-0.79 -1.18,-1.85 -1.18,-3.19l0 -16.32c0,0 0,0 0,0 0,0 0,0 0,0l2.63 0c0,0 0,0 0,0 0,0 0,0 0,0l0 15.67c0,0.89 0.18,1.54 0.53,1.96 0.35,0.42 0.87,0.63 1.56,0.63 0.16,0 0.35,-0.02 0.56,-0.06 0.21,-0.03 0.47,-0.1 0.8,-0.21 0.32,-0.1 0.48,-0.15 0.48,-0.15 0,0 0,0 0,0l0 2.44c0,0 0,0 0,0 0,0 -0.14,0.05 -0.42,0.13 -0.29,0.08 -0.57,0.15 -0.86,0.2 -0.29,0.05 -0.62,0.07 -1,0.07zm-7.01 -13.87c0,0 0,0 0,0 0,0 0,0 0,0l0 -2.38c0,0 0,0 0,0 0,0 0,0 0,0l9.23 0c0,0 0,0 0,0 0,0 0,0 0,0l0 2.38c0,0 0,0 0,0 0,0 0,0 0,0l-9.23 0zm20.01 13.37c0,0 0,0 0,0 0,0 0,0 0,0l0 -22.11c0,0 0,0 0,0 0,0 0,0 0,0l2.63 0c0,0 0,0 0,0 0,0 0,0 0,0l0 8.68 0.09 0c0.45,-0.82 1.13,-1.5 2.04,-2.02 0.91,-0.53 1.89,-0.79 2.96,-0.79 1.86,0 3.3,0.55 4.32,1.64 1.01,1.09 1.52,2.59 1.52,4.51l0 10.1c0,0 0,0 0,0 0,0 0,0 0,0l-2.63 0c0,0 0,0 0,0 0,0 0,0 0,0l0 -9.7c0,-1.34 -0.33,-2.37 -0.99,-3.09 -0.66,-0.72 -1.61,-1.08 -2.84,-1.08 -1.21,0 -2.26,0.51 -3.15,1.54 -0.89,1.03 -1.33,2.21 -1.33,3.55l0 8.77c0,0 0,0 0,0 0,0 0,0 0,0l-2.63 0z"/>
 </g>
</svg>
